<?xml version="1.0" encoding="UTF-8" standalone="no"?>
<svg
   xmlns:dc="http://purl.org/dc/elements/1.1/"
   xmlns:cc="http://creativecommons.org/ns#"
   xmlns:rdf="http://www.w3.org/1999/02/22-rdf-syntax-ns#"
   xmlns:svg="http://www.w3.org/2000/svg"
   xmlns="http://www.w3.org/2000/svg"
   xmlns:xlink="http://www.w3.org/1999/xlink"
   xmlns:sodipodi="http://sodipodi.sourceforge.net/DTD/sodipodi-0.dtd"
   xmlns:inkscape="http://www.inkscape.org/namespaces/inkscape"
   width="210mm"
   height="297mm"
   viewBox="0 0 210 297"
   version="1.1"
   id="svg8"
   inkscape:version="1.0.1 (3bc2e813f5, 2020-09-07)"
   sodipodi:docname="icons.svg">
  <defs
     id="defs2">
    <linearGradient
       inkscape:collect="always"
       id="linearGradient1529">
      <stop
         style="stop-color:#616161;stop-opacity:1;"
         offset="0"
         id="stop1525" />
      <stop
         style="stop-color:#7a7a7a;stop-opacity:1"
         offset="1"
         id="stop1527" />
    </linearGradient>
    <linearGradient
       inkscape:collect="always"
       id="linearGradient1434-3">
      <stop
         style="stop-color:#49701a;stop-opacity:1"
         offset="0"
         id="stop1430" />
      <stop
         style="stop-color:#4b721a;stop-opacity:1;"
         offset="0.37391406"
         id="stop1465" />
      <stop
         style="stop-color:#4c741b;stop-opacity:1;"
         offset="0.53675944"
         id="stop1461" />
      <stop
         style="stop-color:#6ca526;stop-opacity:1"
         offset="1"
         id="stop1432" />
    </linearGradient>
    <linearGradient
       inkscape:collect="always"
       id="linearGradient1418">
      <stop
         style="stop-color:#204676;stop-opacity:1"
         offset="0"
         id="stop1414" />
      <stop
         style="stop-color:#204777;stop-opacity:1;"
         offset="0.11469565"
         id="stop1426" />
      <stop
         style="stop-color:#2b5d9d;stop-opacity:1;"
         offset="0.7653116"
         id="stop1422" />
      <stop
         style="stop-color:#2b5e9f;stop-opacity:1;"
         offset="0.9662835"
         id="stop1428" />
      <stop
         style="stop-color:#538ad1;stop-opacity:1"
         offset="1"
         id="stop1416" />
    </linearGradient>
    <linearGradient
       inkscape:collect="always"
       id="linearGradient1036">
      <stop
         style="stop-color:#cab400;stop-opacity:1;"
         offset="0"
         id="stop1032" />
      <stop
         style="stop-color:#9f932b;stop-opacity:1"
         offset="1"
         id="stop1034" />
    </linearGradient>
    <linearGradient
       inkscape:collect="always"
       id="linearGradient943">
      <stop
         style="stop-color:#ff0202;stop-opacity:1"
         offset="0"
         id="stop939" />
      <stop
         style="stop-color:#ff1706;stop-opacity:1;"
         offset="0.49076495"
         id="stop949" />
      <stop
         style="stop-color:#ffe535;stop-opacity:1"
         offset="0.82833761"
         id="stop947" />
      <stop
         style="stop-color:#ffe92b;stop-opacity:0"
         offset="1"
         id="stop941" />
    </linearGradient>
    <filter
       inkscape:collect="always"
       style="color-interpolation-filters:sRGB"
       id="filter853"
       x="-4.8725159e-06"
       width="1.0000097"
       y="-4.7296111e-06"
       height="1.0000095">
      <feGaussianBlur
         inkscape:collect="always"
         stdDeviation="0.00013016787"
         id="feGaussianBlur855" />
    </filter>
    <filter
       inkscape:collect="always"
       style="color-interpolation-filters:sRGB"
       id="filter853-6"
       x="-4.872516e-06"
       width="1.0000097"
       y="-4.7296112e-06"
       height="1.0000095">
      <feGaussianBlur
         inkscape:collect="always"
         stdDeviation="0.00013016787"
         id="feGaussianBlur855-3" />
    </filter>
    <filter
       inkscape:collect="always"
       style="color-interpolation-filters:sRGB"
       id="filter853-6-9"
       x="-4.872516e-06"
       width="1.0000097"
       y="-4.7296112e-06"
       height="1.0000095">
      <feGaussianBlur
         inkscape:collect="always"
         stdDeviation="0.00013016787"
         id="feGaussianBlur855-3-8" />
    </filter>
    <filter
       inkscape:collect="always"
       style="color-interpolation-filters:sRGB"
       id="filter853-6-9-8"
       x="-4.872516e-06"
       width="1.0000097"
       y="-4.7296112e-06"
       height="1.0000095">
      <feGaussianBlur
         inkscape:collect="always"
         stdDeviation="0.00013016787"
         id="feGaussianBlur855-3-8-2" />
    </filter>
    <radialGradient
       inkscape:collect="always"
       xlink:href="#linearGradient943"
       id="radialGradient945"
       cx="86.862602"
       cy="111.45139"
       fx="86.862602"
       fy="111.45139"
       r="55.984425"
       gradientUnits="userSpaceOnUse" />
    <inkscape:perspective
       sodipodi:type="inkscape:persp3d"
       inkscape:vp_x="0 : 526.18109 : 1"
       inkscape:vp_y="0 : 1000 : 0"
       inkscape:vp_z="744.09448 : 526.18109 : 1"
       inkscape:persp3d-origin="372.04724 : 350.78739 : 1"
       id="perspective2669" />
    <linearGradient
       inkscape:collect="always"
       xlink:href="#linearGradient1036"
       id="linearGradient1038"
       x1="18.58012"
       y1="48.814957"
       x2="44.944775"
       y2="22.889812"
       gradientUnits="userSpaceOnUse" />
    <linearGradient
       inkscape:collect="always"
       xlink:href="#linearGradient1036"
       id="linearGradient1046"
       x1="24.860954"
       y1="35.71875"
       x2="37.12714"
       y2="35.71875"
       gradientUnits="userSpaceOnUse" />
    <linearGradient
       inkscape:collect="always"
       xlink:href="#linearGradient1036"
       id="linearGradient1054"
       x1="35.694592"
       y1="38.620445"
       x2="40.209957"
       y2="38.620445"
       gradientUnits="userSpaceOnUse" />
    <linearGradient
       inkscape:collect="always"
       xlink:href="#linearGradient1036"
       id="linearGradient1062"
       x1="25.672064"
       y1="42.763142"
       x2="30.187244"
       y2="42.763142"
       gradientUnits="userSpaceOnUse" />
    <linearGradient
       inkscape:collect="always"
       xlink:href="#linearGradient1036"
       id="linearGradient1070"
       x1="26.072979"
       y1="28.597839"
       x2="30.588161"
       y2="28.597839"
       gradientUnits="userSpaceOnUse" />
    <filter
       inkscape:label="Ripple"
       inkscape:menu="Distort"
       inkscape:menu-tooltip="Horizontal rippling of edges"
       style="color-interpolation-filters:sRGB;"
       id="filter1197">
      <feTurbulence
         numOctaves="1"
         baseFrequency="0.002 0.107"
         id="feTurbulence1191" />
      <feColorMatrix
         values="2 0 0 0 0 0 0 0 0 0 0 0 0 0 0 0 0 0 0.5 0.5"
         result="result91"
         id="feColorMatrix1193" />
      <feDisplacementMap
         yChannelSelector="A"
         xChannelSelector="R"
         scale="14.3"
         in="SourceGraphic"
         in2="result91"
         id="feDisplacementMap1195" />
    </filter>
    <filter
       inkscape:label="Ripple"
       inkscape:menu="Distort"
       inkscape:menu-tooltip="Horizontal rippling of edges"
       style="color-interpolation-filters:sRGB;"
       id="filter1220">
      <feTurbulence
         numOctaves="1"
         baseFrequency="0.002 0.107"
         id="feTurbulence1214" />
      <feColorMatrix
         values="2 0 0 0 0 0 0 0 0 0 0 0 0 0 0 0 0 0 0.5 0.5"
         result="result91"
         id="feColorMatrix1216" />
      <feDisplacementMap
         yChannelSelector="A"
         xChannelSelector="R"
         scale="14.3"
         in="SourceGraphic"
         in2="result91"
         id="feDisplacementMap1218" />
    </filter>
    <filter
       inkscape:label="Ripple"
       inkscape:menu="Distort"
       inkscape:menu-tooltip="Horizontal rippling of edges"
       style="color-interpolation-filters:sRGB;"
       id="filter1264">
      <feTurbulence
         numOctaves="1"
         baseFrequency="0.002 0.107"
         id="feTurbulence1258" />
      <feColorMatrix
         values="2 0 0 0 0 0 0 0 0 0 0 0 0 0 0 0 0 0 0.5 0.5"
         result="result91"
         id="feColorMatrix1260" />
      <feDisplacementMap
         yChannelSelector="A"
         xChannelSelector="R"
         scale="14.3"
         in="SourceGraphic"
         in2="result91"
         id="feDisplacementMap1262" />
    </filter>
    <filter
       inkscape:label="Ripple"
       inkscape:menu="Distort"
       inkscape:menu-tooltip="Horizontal rippling of edges"
       style="color-interpolation-filters:sRGB;"
       id="filter1272">
      <feTurbulence
         numOctaves="1"
         baseFrequency="0.002 0.107"
         id="feTurbulence1266" />
      <feColorMatrix
         values="2 0 0 0 0 0 0 0 0 0 0 0 0 0 0 0 0 0 0.5 0.5"
         result="result91"
         id="feColorMatrix1268" />
      <feDisplacementMap
         yChannelSelector="A"
         xChannelSelector="R"
         scale="14.3"
         in="SourceGraphic"
         in2="result91"
         id="feDisplacementMap1270" />
    </filter>
    <filter
       inkscape:label="Ripple"
       inkscape:menu="Distort"
       inkscape:menu-tooltip="Horizontal rippling of edges"
       style="color-interpolation-filters:sRGB;"
       id="filter1280">
      <feTurbulence
         numOctaves="1"
         baseFrequency="0.002 0.107"
         id="feTurbulence1274" />
      <feColorMatrix
         values="2 0 0 0 0 0 0 0 0 0 0 0 0 0 0 0 0 0 0.5 0.5"
         result="result91"
         id="feColorMatrix1276" />
      <feDisplacementMap
         yChannelSelector="A"
         xChannelSelector="R"
         scale="14.3"
         in="SourceGraphic"
         in2="result91"
         id="feDisplacementMap1278" />
    </filter>
    <filter
       inkscape:label="Ripple"
       inkscape:menu="Distort"
       inkscape:menu-tooltip="Horizontal rippling of edges"
       style="color-interpolation-filters:sRGB;"
       id="filter1288">
      <feTurbulence
         numOctaves="1"
         baseFrequency="0.002 0.107"
         id="feTurbulence1282" />
      <feColorMatrix
         values="2 0 0 0 0 0 0 0 0 0 0 0 0 0 0 0 0 0 0.5 0.5"
         result="result91"
         id="feColorMatrix1284" />
      <feDisplacementMap
         yChannelSelector="A"
         xChannelSelector="R"
         scale="14.3"
         in="SourceGraphic"
         in2="result91"
         id="feDisplacementMap1286" />
    </filter>
    <filter
       inkscape:label="Ripple"
       inkscape:menu="Distort"
       inkscape:menu-tooltip="Horizontal rippling of edges"
       style="color-interpolation-filters:sRGB;"
       id="filter1296">
      <feTurbulence
         numOctaves="1"
         baseFrequency="0.002 0.107"
         id="feTurbulence1290" />
      <feColorMatrix
         values="2 0 0 0 0 0 0 0 0 0 0 0 0 0 0 0 0 0 0.5 0.5"
         result="result91"
         id="feColorMatrix1292" />
      <feDisplacementMap
         yChannelSelector="A"
         xChannelSelector="R"
         scale="14.3"
         in="SourceGraphic"
         in2="result91"
         id="feDisplacementMap1294" />
    </filter>
    <filter
       inkscape:label="Ripple"
       inkscape:menu="Distort"
       inkscape:menu-tooltip="Horizontal rippling of edges"
       style="color-interpolation-filters:sRGB;"
       id="filter1304">
      <feTurbulence
         numOctaves="1"
         baseFrequency="0.002 0.107"
         id="feTurbulence1298" />
      <feColorMatrix
         values="2 0 0 0 0 0 0 0 0 0 0 0 0 0 0 0 0 0 0.5 0.5"
         result="result91"
         id="feColorMatrix1300" />
      <feDisplacementMap
         yChannelSelector="A"
         xChannelSelector="R"
         scale="14.3"
         in="SourceGraphic"
         in2="result91"
         id="feDisplacementMap1302" />
    </filter>
    <filter
       inkscape:label="Ripple"
       inkscape:menu="Distort"
       inkscape:menu-tooltip="Horizontal rippling of edges"
       style="color-interpolation-filters:sRGB"
       id="filter1296-4">
      <feTurbulence
         numOctaves="1"
         baseFrequency="0.002 0.107"
         id="feTurbulence1290-7" />
      <feColorMatrix
         values="2 0 0 0 0 0 0 0 0 0 0 0 0 0 0 0 0 0 0.5 0.5"
         result="result91"
         id="feColorMatrix1292-2" />
      <feDisplacementMap
         yChannelSelector="A"
         xChannelSelector="R"
         scale="14.3"
         in="SourceGraphic"
         in2="result91"
         id="feDisplacementMap1294-9" />
    </filter>
    <radialGradient
       inkscape:collect="always"
       xlink:href="#linearGradient1418"
       id="radialGradient1424"
       cx="28.220322"
       cy="38.296383"
       fx="28.220322"
       fy="38.296383"
       r="3.541321"
       gradientUnits="userSpaceOnUse"
       gradientTransform="matrix(1.8803542,-0.14841285,0.14976798,1.8975235,-30.579451,-30.18364)" />
    <radialGradient
       inkscape:collect="always"
       xlink:href="#linearGradient1434-3"
       id="radialGradient1436"
       cx="106.62049"
       cy="146.19003"
       fx="106.62049"
       fy="146.19003"
       r="13.883791"
       gradientTransform="matrix(1.8240063,-0.23012521,0.2411666,1.9115219,-123.33727,-107.93793)"
       gradientUnits="userSpaceOnUse" />
    <radialGradient
       inkscape:collect="always"
       xlink:href="#linearGradient1036"
       id="radialGradient1463"
       gradientUnits="userSpaceOnUse"
       gradientTransform="matrix(1.8240061,-0.23012569,0.2411671,1.9115217,-123.33731,-107.93786)"
       cx="106.62048"
       cy="146.19003"
       fx="106.62048"
       fy="146.19003"
       r="13.883791" />
    <radialGradient
       inkscape:collect="always"
       xlink:href="#linearGradient1036"
       id="radialGradient1497"
       cx="14.03165"
       cy="69.409897"
       fx="14.03165"
       fy="69.409897"
       r="8.5125341"
       gradientUnits="userSpaceOnUse"
       gradientTransform="matrix(0.3393736,0,0,0.3393736,9.2696782,45.85401)" />
    <radialGradient
       inkscape:collect="always"
       xlink:href="#linearGradient1529"
       id="radialGradient1531"
       cx="53.00589"
       cy="272.69788"
       fx="53.00589"
       fy="272.69788"
       r="41.582312"
       gradientTransform="matrix(-0.16486448,4.4116532e-4,-2.8992324e-4,-0.07801536,23.007239,86.989752)"
       gradientUnits="userSpaceOnUse" />
    <radialGradient
       inkscape:collect="always"
       xlink:href="#linearGradient1529"
       id="radialGradient1531-3"
       cx="53.00589"
       cy="272.69788"
       fx="53.00589"
       fy="272.69788"
       r="41.582314"
       gradientTransform="matrix(0.16486448,-4.4116532e-4,2.8992324e-4,0.07801536,5.1932365,51.876065)"
       gradientUnits="userSpaceOnUse" />
    <linearGradient
       inkscape:collect="always"
       xlink:href="#linearGradient1529"
       id="linearGradient1646"
       x1="-2.1106875"
       y1="69.409897"
       x2="30.173986"
       y2="69.409897"
       gradientUnits="userSpaceOnUse"
       gradientTransform="matrix(0.3393736,0,0,0.3393736,9.2696782,45.85401)" />
  </defs>
  <sodipodi:namedview
     id="base"
     pagecolor="#ffffff"
     bordercolor="#666666"
     borderopacity="1.0"
     inkscape:pageopacity="0.0"
     inkscape:pageshadow="2"
     inkscape:zoom="2.8284271"
     inkscape:cx="144.61487"
     inkscape:cy="279.38573"
     inkscape:document-units="mm"
     inkscape:current-layer="layer1"
     inkscape:document-rotation="0"
     showgrid="false"
     inkscape:snap-nodes="true"
     inkscape:snap-global="true"
     inkscape:snap-object-midpoints="true"
     inkscape:window-width="1920"
     inkscape:window-height="1112"
     inkscape:window-x="-8"
     inkscape:window-y="-8"
     inkscape:window-maximized="1"
     inkscape:object-nodes="true" />
  <metadata
     id="metadata5">
    <rdf:RDF>
      <cc:Work
         rdf:about="">
        <dc:format>image/svg+xml</dc:format>
        <dc:type
           rdf:resource="http://purl.org/dc/dcmitype/StillImage" />
        <dc:title></dc:title>
      </cc:Work>
    </rdf:RDF>
  </metadata>
  <g
     inkscape:label="Layer 1"
     inkscape:groupmode="layer"
     id="layer1">
    <circle
       style="fill:url(#radialGradient945);stroke-width:8.65409;fill-opacity:1"
       id="path833-9"
       cx="86.862602"
       cy="111.45139"
       r="55.984425" />
    <circle
       style="fill:#1a1a1a;stroke-width:5.90799"
       id="path833"
       cx="86.862602"
       cy="111.45139"
       r="38.219543" />
    <path
       style="opacity:1;fill:#232323;fill-opacity:1;stroke:none;stroke-width:0.264583px;stroke-linecap:butt;stroke-linejoin:miter;stroke-opacity:1;filter:url(#filter853)"
       d="m 86.934523,78.524554 c -4.516947,-0.12577 -10.04042,8.538146 -17.292411,7.748511 -7.251991,-0.789635 -5.630557,8.705193 -7.843006,12.662206 -2.212449,3.957009 -5.75262,6.346119 -6.236606,10.205349 -0.483986,3.85923 0.755951,8.69345 1.417409,12.28423 0.661458,3.59078 0.850444,12.18972 9.071428,15.7805 8.220984,3.59078 10.110864,-1.6064 16.914436,1.13393 6.803572,2.74033 8.22923,7.20958 11.90625,6.04762 3.67702,-1.16196 8.419637,-4.63397 11.339287,-7.08705 2.91965,-2.45308 -0.56145,-7.76462 6.70907,-8.78795 7.27052,-1.02333 6.90721,-9.33809 6.4256,-14.45758 -0.48161,-5.11949 1.17789,-13.8455 -5.85863,-17.481404 -7.03652,-3.6359 -6.90674,-9.82308 -10.58333,-11.433782 -3.676594,-1.610702 -11.45255,-6.48881 -15.969497,-6.61458 z"
       id="path839"
       sodipodi:nodetypes="zzzzzzzzzzzzzz"
       transform="matrix(1.0501092,0,0,1.0457784,-4.6685777,-6.4294716)" />
    <path
       style="opacity:1;fill:#232323;fill-opacity:1;stroke:none;stroke-width:0.264583px;stroke-linecap:butt;stroke-linejoin:miter;stroke-opacity:1;filter:url(#filter853)"
       d="m 86.934523,78.524554 c -4.516947,-0.12577 -10.04042,8.538146 -17.292411,7.748511 -7.251991,-0.789635 -5.630557,8.705193 -7.843006,12.662206 -2.212449,3.957009 -5.75262,6.346119 -6.236606,10.205349 -0.483986,3.85923 0.755951,8.69345 1.417409,12.28423 0.661458,3.59078 0.850444,12.18972 9.071428,15.7805 8.220984,3.59078 10.110864,-1.6064 16.914436,1.13393 6.803572,2.74033 8.22923,7.20958 11.90625,6.04762 3.67702,-1.16196 8.419637,-4.63397 11.339287,-7.08705 2.91965,-2.45308 -0.56145,-7.76462 6.70907,-8.78795 7.27052,-1.02333 6.90721,-9.33809 6.4256,-14.45758 -0.48161,-5.11949 1.17789,-13.8455 -5.85863,-17.481404 -7.03652,-3.6359 -6.90674,-9.82308 -10.58333,-11.433782 -3.676594,-1.610702 -11.45255,-6.48881 -15.969497,-6.61458 z"
       id="path857"
       sodipodi:nodetypes="zzzzzzzzzzzzzz"
       transform="matrix(1.1075692,0,0,1.1030014,-9.6969446,-12.812668)" />
    <path
       style="opacity:1;fill:#2a2a2a;fill-opacity:1;stroke:none;stroke-width:0.264583px;stroke-linecap:butt;stroke-linejoin:miter;stroke-opacity:1;filter:url(#filter853-6)"
       d="m 86.934523,78.524554 c -4.516947,-0.12577 -10.04042,8.538146 -17.292411,7.748511 -7.251991,-0.789635 -5.630557,8.705193 -7.843006,12.662206 -2.212449,3.957009 -5.75262,6.346119 -6.236606,10.205349 -0.483986,3.85923 0.755951,8.69345 1.417409,12.28423 0.661458,3.59078 0.850444,12.18972 9.071428,15.7805 8.220984,3.59078 10.110864,-1.6064 16.914436,1.13393 6.803572,2.74033 8.22923,7.20958 11.90625,6.04762 3.67702,-1.16196 8.419637,-4.63397 11.339287,-7.08705 2.91965,-2.45308 -0.56145,-7.76462 6.70907,-8.78795 7.27052,-1.02333 6.90721,-9.33809 6.4256,-14.45758 -0.48161,-5.11949 1.17789,-13.8455 -5.85863,-17.481404 -7.03652,-3.6359 -6.90674,-9.82308 -10.58333,-11.433782 -3.676594,-1.610702 -11.45255,-6.48881 -15.969497,-6.61458 z"
       id="path857-7"
       sodipodi:nodetypes="zzzzzzzzzzzzzz"
       transform="matrix(-0.91118548,-0.206497,0.20564537,-0.90742771,143.16647,230.60778)" />
    <path
       style="opacity:1;fill:#323232;fill-opacity:1;stroke:none;stroke-width:0.264583px;stroke-linecap:butt;stroke-linejoin:miter;stroke-opacity:1;filter:url(#filter853-6-9)"
       d="m 86.934523,78.524554 c -4.516947,-0.12577 -10.04042,8.538146 -17.292411,7.748511 -7.251991,-0.789635 -5.630557,8.705193 -7.843006,12.662206 -2.212449,3.957009 -5.75262,6.346119 -6.236606,10.205349 -0.483986,3.85923 0.755951,8.69345 1.417409,12.28423 0.661458,3.59078 0.850444,12.18972 9.071428,15.7805 8.220984,3.59078 10.110864,-1.6064 16.914436,1.13393 6.803572,2.74033 8.22923,7.20958 11.90625,6.04762 3.67702,-1.16196 8.419637,-4.63397 11.339287,-7.08705 2.91965,-2.45308 -0.56145,-7.76462 6.70907,-8.78795 7.27052,-1.02333 6.90721,-9.33809 6.4256,-14.45758 -0.48161,-5.11949 1.17789,-13.8455 -5.85863,-17.481404 -7.03652,-3.6359 -6.90674,-9.82308 -10.58333,-11.433782 -3.676594,-1.610702 -11.45255,-6.48881 -15.969497,-6.61458 z"
       id="path857-7-0"
       sodipodi:nodetypes="zzzzzzzzzzzzzz"
       transform="matrix(0.01993438,0.18555505,-0.18478982,0.01985218,98.43271,73.206661)" />
    <path
       style="opacity:1;fill:#323232;fill-opacity:1;stroke:none;stroke-width:0.264583px;stroke-linecap:butt;stroke-linejoin:miter;stroke-opacity:1;filter:url(#filter853-6-9)"
       d="m 86.934523,78.524554 c -4.516947,-0.12577 -10.04042,8.538146 -17.292411,7.748511 -7.251991,-0.789635 -5.630557,8.705193 -7.843006,12.662206 -2.212449,3.957009 -5.75262,6.346119 -6.236606,10.205349 -0.483986,3.85923 0.755951,8.69345 1.417409,12.28423 0.661458,3.59078 0.850444,12.18972 9.071428,15.7805 8.220984,3.59078 10.110864,-1.6064 16.914436,1.13393 6.803572,2.74033 8.22923,7.20958 11.90625,6.04762 3.67702,-1.16196 8.419637,-4.63397 11.339287,-7.08705 2.91965,-2.45308 -0.56145,-7.76462 6.70907,-8.78795 7.27052,-1.02333 6.90721,-9.33809 6.4256,-14.45758 -0.48161,-5.11949 1.17789,-13.8455 -5.85863,-17.481404 -7.03652,-3.6359 -6.90674,-9.82308 -10.58333,-11.433782 -3.676594,-1.610702 -11.45255,-6.48881 -15.969497,-6.61458 z"
       id="path901"
       sodipodi:nodetypes="zzzzzzzzzzzzzz"
       transform="matrix(0.01993438,0.18555505,-0.18478982,0.01985218,98.43271,73.206661)" />
    <path
       style="opacity:1;fill:#3f3f3f;fill-opacity:1;stroke:none;stroke-width:0.264583px;stroke-linecap:butt;stroke-linejoin:miter;stroke-opacity:1;filter:url(#filter853-6-9-8)"
       d="m 86.934523,78.524554 c -4.516947,-0.12577 -10.04042,8.538146 -17.292411,7.748511 -7.251991,-0.789635 -5.630557,8.705193 -7.843006,12.662206 -2.212449,3.957009 -5.75262,6.346119 -6.236606,10.205349 -0.483986,3.85923 0.755951,8.69345 1.417409,12.28423 0.661458,3.59078 0.850444,12.18972 9.071428,15.7805 8.220984,3.59078 10.110864,-1.6064 16.914436,1.13393 6.803572,2.74033 8.22923,7.20958 11.90625,6.04762 3.67702,-1.16196 8.419637,-4.63397 11.339287,-7.08705 2.91965,-2.45308 -0.56145,-7.76462 6.70907,-8.78795 7.27052,-1.02333 6.90721,-9.33809 6.4256,-14.45758 -0.48161,-5.11949 1.17789,-13.8455 -5.85863,-17.481404 -7.03652,-3.6359 -6.90674,-9.82308 -10.58333,-11.433782 -3.676594,-1.610702 -11.45255,-6.48881 -15.969497,-6.61458 z"
       id="path901-9"
       sodipodi:nodetypes="zzzzzzzzzzzzzz"
       transform="matrix(0.13218202,0.05252034,-0.05230374,0.1316369,73.913425,71.858786)" />
    <path
       d="M 45.409341,33.725379 42.910616,32.89009 c -0.305329,-1.290108 -0.812271,-2.501901 -1.48934,-3.598334 l 1.17528,-2.35585 c -0.806715,-1.063889 -1.756305,-2.013214 -2.81993,-2.819664 l -2.356114,1.175279 c -1.096169,-0.677334 -2.307961,-1.184804 -3.597804,-1.489869 l -0.83529,-2.49846 c -0.651933,-0.08916 -1.317096,-0.136525 -1.993635,-0.136525 -0.67654,0 -1.341438,0.04736 -1.993636,0.136525 l -0.835289,2.49846 c -1.289844,0.305065 -2.501636,0.812535 -3.598069,1.489869 l -2.35585,-1.175279 c -1.063889,0.80645 -2.013214,1.755775 -2.8194,2.819664 l 1.175279,2.35585 c -0.677333,1.096433 -1.184804,2.308226 -1.489604,3.598334 l -2.498725,0.835289 c -0.08916,0.651669 -0.136525,1.317096 -0.136525,1.993371 0,0.676275 0.0471,1.341702 0.136525,1.993371 l 2.498725,0.83529 c 0.305065,1.290108 0.812271,2.5019 1.48934,3.598333 l -1.17475,2.35585 c 0.806185,1.06389 1.75551,2.013215 2.8194,2.819665 l 2.35585,-1.17528 c 1.096433,0.677334 2.308225,1.184805 3.598068,1.489869 l 0.83529,2.498196 c 0.651933,0.08943 1.317096,0.13679 1.993635,0.13679 0.67654,0 1.341438,-0.04736 1.993636,-0.13679 l 0.835289,-2.498196 c 1.289844,-0.305064 2.501636,-0.812535 3.597804,-1.489604 l 2.356115,1.175015 c 1.063625,-0.80645 2.013215,-1.755775 2.8194,-2.819665 l -1.17475,-2.35585 c 0.677069,-1.096433 1.18401,-2.308225 1.48934,-3.598333 l 2.498725,-0.83529 c 0.08916,-0.651669 0.136525,-1.317096 0.136525,-1.993371 0,-0.676275 -0.04736,-1.341702 -0.13679,-1.993371 z M 30.993783,45.664438 c -5.49275,0 -9.945688,-4.452673 -9.945688,-9.945688 0,-5.493015 4.452938,-9.945688 9.945688,-9.945688 5.49275,0 9.945687,4.452673 9.945687,9.945688 0,5.493015 -4.452937,9.945688 -9.945687,9.945688 z"
       id="path29"
       style="stroke-width:0.264583;fill:url(#linearGradient1038);fill-opacity:1"
       inkscape:export-xdpi="96"
       inkscape:export-ydpi="96" />
    <path
       d="M 37.06949,34.878628 36.016382,34.526589 C 35.887698,33.982862 35.674044,33.472143 35.388687,33.010042 L 35.884019,32.01715 C 35.544022,31.568765 35.14381,31.168664 34.695536,30.828779 l -0.993003,0.495332 C 33.240544,31.038642 32.729824,30.824765 32.186209,30.696193 L 31.83417,29.643197 c -0.274763,-0.03758 -0.555101,-0.05754 -0.840234,-0.05754 -0.285133,0 -0.56536,0.01996 -0.840234,0.05754 l -0.352039,1.052996 c -0.543616,0.128572 -1.054335,0.342449 -1.516436,0.627918 l -0.992892,-0.495332 c -0.448384,0.339885 -0.848485,0.739986 -1.188259,1.188371 l 0.495332,0.992892 c -0.285468,0.462101 -0.499346,0.97282 -0.627806,1.516547 l -1.053108,0.352039 c -0.03758,0.274651 -0.05754,0.555101 -0.05754,0.840122 0,0.285022 0.01985,0.565471 0.05754,0.840123 l 1.053108,0.352039 c 0.128572,0.543727 0.342338,1.054446 0.627694,1.516547 l -0.495108,0.992892 c 0.339773,0.448385 0.739874,0.848486 1.188259,1.188371 l 0.992892,-0.495332 c 0.462101,0.285468 0.97282,0.499346 1.516435,0.627918 l 0.35204,1.052885 c 0.274762,0.03769 0.5551,0.05765 0.840233,0.05765 0.285134,0 0.56536,-0.01996 0.840234,-0.05765 l 0.35204,-1.052885 c 0.543615,-0.128572 1.054334,-0.34245 1.516323,-0.627806 l 0.993004,0.49522 c 0.448273,-0.339885 0.848486,-0.739986 1.188259,-1.188371 l -0.495108,-0.992892 c 0.285356,-0.462101 0.499011,-0.97282 0.627694,-1.516547 l 1.053108,-0.352039 c 0.03758,-0.274652 0.05754,-0.555101 0.05754,-0.840123 0,-0.285021 -0.01996,-0.565471 -0.05765,-0.840122 z m -6.075554,5.031813 c -2.314964,0 -4.191691,-1.876615 -4.191691,-4.191691 0,-2.315075 1.876727,-4.19169 4.191691,-4.19169 2.314964,0 4.19169,1.876615 4.19169,4.19169 0,2.315076 -1.876726,4.191691 -4.19169,4.191691 z"
       id="path29-1"
       style="fill:url(#linearGradient1046);fill-opacity:1.0;stroke-width:0.111511" />
    <path
       d="m 40.188736,38.311185 -0.387665,-0.129591 c -0.04737,-0.200154 -0.12602,-0.388157 -0.231064,-0.558264 l 0.182339,-0.365498 c -0.125158,-0.165058 -0.272482,-0.312341 -0.437498,-0.437458 l -0.36554,0.18234 c -0.170065,-0.105086 -0.358069,-0.183817 -0.558182,-0.231147 l -0.129591,-0.387623 c -0.101144,-0.01383 -0.204341,-0.02118 -0.309303,-0.02118 -0.104961,0 -0.208117,0.0073 -0.309302,0.02118 l -0.129591,0.387623 c -0.200114,0.04733 -0.388117,0.126061 -0.558224,0.231147 l -0.365498,-0.18234 c -0.165057,0.125117 -0.31234,0.2724 -0.437416,0.437458 l 0.182339,0.365498 c -0.105085,0.170107 -0.183817,0.35811 -0.231105,0.558264 l -0.387665,0.129591 c -0.01383,0.101104 -0.02118,0.204341 -0.02118,0.309262 0,0.104921 0.0073,0.208158 0.02118,0.309262 l 0.387665,0.129591 c 0.04733,0.200154 0.12602,0.388158 0.231064,0.558264 l -0.182257,0.365499 c 0.125075,0.165057 0.272359,0.31234 0.437416,0.437457 l 0.365499,-0.182339 c 0.170106,0.105085 0.35811,0.183817 0.558222,0.231146 l 0.129592,0.387583 c 0.101144,0.01387 0.204341,0.02122 0.309302,0.02122 0.104962,0 0.208118,-0.0073 0.309303,-0.02122 l 0.129592,-0.387583 c 0.200112,-0.04733 0.388116,-0.126061 0.558181,-0.231105 l 0.36554,0.182298 c 0.165016,-0.125117 0.312341,-0.2724 0.437416,-0.437457 l -0.182257,-0.365499 c 0.105044,-0.170106 0.183694,-0.35811 0.231064,-0.558264 l 0.387665,-0.129591 c 0.01383,-0.101104 0.02118,-0.204341 0.02118,-0.309262 0,-0.104921 -0.0073,-0.208158 -0.02122,-0.309262 z m -2.236504,1.852287 c -0.852173,0 -1.543025,-0.69081 -1.543025,-1.543025 0,-0.852214 0.690852,-1.543025 1.543025,-1.543025 0.852174,0 1.543025,0.690811 1.543025,1.543025 0,0.852215 -0.690851,1.543025 -1.543025,1.543025 z"
       id="path29-1-4"
       style="fill:url(#linearGradient1054);fill-opacity:1.0;stroke-width:0.0410489" />
    <path
       d="m 29.455798,41.099295 -0.381309,0.147247 c -0.16408,-0.124031 -0.344516,-0.21876 -0.533882,-0.282877 l -0.09247,-0.397851 c -0.201647,-0.04741 -0.409043,-0.06698 -0.615943,-0.05821 l -0.165435,0.373495 c -0.198022,0.02743 -0.393068,0.0866 -0.57743,0.177683 l -0.346926,-0.216073 c -0.08675,0.05382 -0.17095,0.113929 -0.251827,0.180832 -0.08088,0.0669 -0.155707,0.138279 -0.224826,0.213471 l 0.14722,0.381276 c -0.124025,0.164023 -0.218704,0.344521 -0.282793,0.53392 l -0.397852,0.09247 c -0.04743,0.201614 -0.06704,0.408979 -0.0582,0.615886 l 0.373468,0.165402 c 0.02745,0.198054 0.08663,0.3931 0.177767,0.577466 l -0.216105,0.346953 c 0.05379,0.08672 0.113929,0.170951 0.180806,0.251796 0.06688,0.08084 0.138306,0.155739 0.213445,0.224795 l 0.381309,-0.147247 c 0.164048,0.124057 0.344515,0.218762 0.533882,0.282877 l 0.09254,0.397799 c 0.201581,0.04745 0.408947,0.06707 0.615879,0.05826 l 0.165404,-0.373469 c 0.198052,-0.02745 0.393099,-0.08663 0.57746,-0.177708 l 0.346901,0.21604 c 0.08677,-0.05379 0.170976,-0.113897 0.251852,-0.180799 0.08088,-0.0669 0.155708,-0.13828 0.224801,-0.213502 l -0.147193,-0.381247 c 0.124023,-0.164022 0.218702,-0.34452 0.282787,-0.53386 l 0.397856,-0.09253 c 0.0474,-0.201588 0.06704,-0.40898 0.0582,-0.615885 l -0.373407,-0.165457 c -0.02749,-0.198027 -0.08673,-0.393021 -0.177799,-0.57744 L 29.85008,41.57586 c -0.05379,-0.08672 -0.113929,-0.170951 -0.180806,-0.251796 -0.06688,-0.08084 -0.138305,-0.155739 -0.213476,-0.224769 z m -0.542632,2.8528 c -0.656624,0.54318 -1.629271,0.451244 -2.172478,-0.205412 -0.543206,-0.656655 -0.451212,-1.629297 0.205412,-2.172477 0.656625,-0.543181 1.629272,-0.451243 2.172478,0.205412 0.543206,0.656657 0.451211,1.629298 -0.205412,2.172477 z"
       id="path29-1-4-2"
       style="fill:url(#linearGradient1062);fill-opacity:1.0;stroke-width:0.0410488" />
    <path
       d="m 29.856714,26.933993 -0.381309,0.147247 c -0.16408,-0.124031 -0.344516,-0.21876 -0.533882,-0.282877 l -0.09247,-0.397851 c -0.201647,-0.04741 -0.409043,-0.06698 -0.615943,-0.05821 l -0.165435,0.373495 c -0.198022,0.02743 -0.393068,0.0866 -0.57743,0.177683 l -0.346926,-0.216073 c -0.08675,0.05382 -0.17095,0.113929 -0.251827,0.180832 -0.08088,0.0669 -0.155707,0.138279 -0.224826,0.213471 l 0.14722,0.381276 c -0.124025,0.164023 -0.218704,0.344521 -0.282793,0.53392 l -0.397852,0.09247 c -0.04743,0.201614 -0.06704,0.408979 -0.0582,0.615886 l 0.373468,0.165402 c 0.02745,0.198054 0.08663,0.3931 0.177767,0.577466 l -0.216105,0.346953 c 0.05379,0.08672 0.113929,0.170951 0.180806,0.251796 0.06688,0.08084 0.138306,0.155739 0.213445,0.224795 l 0.381309,-0.147246 c 0.164048,0.124056 0.344515,0.218761 0.533882,0.282876 l 0.09254,0.397799 c 0.201581,0.04745 0.408947,0.06707 0.615879,0.05826 l 0.165404,-0.373469 c 0.198052,-0.02745 0.393099,-0.08663 0.57746,-0.177708 l 0.346901,0.21604 c 0.08677,-0.05379 0.170976,-0.113897 0.251852,-0.180799 0.08088,-0.0669 0.155708,-0.13828 0.224801,-0.213502 l -0.147193,-0.381247 c 0.124023,-0.164022 0.218702,-0.34452 0.282787,-0.53386 l 0.397856,-0.09253 c 0.0474,-0.201588 0.06704,-0.40898 0.0582,-0.615885 l -0.373407,-0.165457 c -0.02749,-0.198027 -0.08673,-0.393021 -0.177799,-0.57744 l 0.216102,-0.346948 c -0.05379,-0.08672 -0.113929,-0.170951 -0.180806,-0.251796 -0.06688,-0.08084 -0.138305,-0.155739 -0.213476,-0.224769 z m -0.542632,2.8528 c -0.656624,0.54318 -1.629271,0.451244 -2.172478,-0.205411 -0.543206,-0.656656 -0.451212,-1.629298 0.205412,-2.172478 0.656625,-0.543181 1.629272,-0.451243 2.172478,0.205412 0.543206,0.656657 0.451211,1.629298 -0.205412,2.172477 z"
       id="path29-1-4-2-2"
       style="fill:url(#linearGradient1070);fill-opacity:1.0;stroke-width:0.0410488" />
    <circle
       style="opacity:1;fill:url(#radialGradient1424);fill-opacity:1;stroke:none;stroke-width:5.90799"
       id="path1072"
       cx="31.003265"
       cy="35.747299"
       r="3.541321" />
    <path
       id="path1074"
       style="fill:#467330;stroke:none;stroke-width:0.999999px;stroke-linecap:butt;stroke-linejoin:miter;stroke-opacity:1;fill-opacity:1"
       d="M 113.49609 122.24023 A 13.38452 13.38452 0 0 0 103.79297 135.10742 A 13.38452 13.38452 0 0 0 103.79688 135.42188 L 104.74023 135.10742 L 108.40234 134.98242 L 110.54883 131.50977 L 112.75781 127.78516 L 111.62109 125.82617 L 113.19922 123.42773 L 113.49609 122.24023 z M 127.10156 126.12891 L 127.08984 126.14258 L 127.02734 127.53125 L 121.4707 130.05664 L 122.41797 138.01172 L 120.52344 145.77734 L 117.09375 144.75 L 111.55273 147.16211 A 13.38452 13.38452 0 0 0 112.41406 147.52148 C 112.38999 147.54559 112.36378 147.56328 112.33984 147.58789 A 13.38452 13.38452 0 0 0 117.17773 148.49219 A 13.38452 13.38452 0 0 0 130.5625 135.10742 A 13.38452 13.38452 0 0 0 127.10156 126.12891 z "
       transform="scale(0.26458333)" />
    <circle
       style="opacity:1;fill:#2d62a5;fill-opacity:1;stroke:none;stroke-width:5.90799;filter:url(#filter1220)"
       id="path1072-7"
       cx="88.259079"
       cy="38.259628"
       r="3.541321" />
    <circle
       style="opacity:1;fill:#2d62a5;fill-opacity:1;stroke:none;stroke-width:5.90799;filter:url(#filter1296)"
       id="path1072-2"
       cx="92.117783"
       cy="21.070864"
       r="3.541321" />
    <circle
       style="opacity:1;fill:#2d62a5;fill-opacity:1;stroke:none;stroke-width:5.90799;filter:url(#filter1304)"
       id="path1072-6"
       cx="73.525848"
       cy="21.819214"
       r="3.541321" />
    <circle
       style="opacity:1;fill:#2d62a5;fill-opacity:1;stroke:none;stroke-width:5.90799;filter:url(#filter1288)"
       id="path1072-63"
       cx="58.184574"
       cy="49.555111"
       r="3.541321" />
    <circle
       style="opacity:1;fill:#2d62a5;fill-opacity:1;stroke:none;stroke-width:5.90799;filter:url(#filter1272)"
       id="path1072-4"
       cx="77.852272"
       cy="40.855488"
       r="3.541321" />
    <circle
       style="opacity:1;fill:#2d62a5;fill-opacity:1;stroke:none;stroke-width:5.90799;filter:url(#filter1280)"
       id="path1072-49"
       cx="53.975082"
       cy="55.845966"
       r="3.541321" />
    <circle
       style="opacity:1;fill:#2d62a5;fill-opacity:1;stroke:none;stroke-width:5.90799;filter:url(#filter1264)"
       id="path1072-5"
       cx="79.653"
       cy="30.893017"
       r="3.541321" />
    <path
       id="path1072-2-3"
       style="opacity:1;fill:#2d62a5;fill-opacity:1;stroke:none;stroke-width:5.90799;filter:url(#filter1296-4)"
       d="m 77.201051,32.696391 a 3.541321,3.541321 0 0 1 -3.541321,3.541321 3.541321,3.541321 0 0 1 -3.541321,-3.541321 3.541321,3.541321 0 0 1 3.541321,-3.541321 3.541321,3.541321 0 0 1 3.541321,3.541321 z" />
    <g
       id="g1380"
       transform="matrix(0.26458333,0,0,0.26458333,-0.00949671,-0.13358239)"
       style="opacity:1;fill-opacity:1;fill:url(#radialGradient1436);stroke:url(#radialGradient1463)">
      <path
         style="color:#000000;font-style:normal;font-variant:normal;font-weight:normal;font-stretch:normal;font-size:medium;line-height:normal;font-family:sans-serif;font-variant-ligatures:normal;font-variant-position:normal;font-variant-caps:normal;font-variant-numeric:normal;font-variant-alternates:normal;font-variant-east-asian:normal;font-feature-settings:normal;font-variation-settings:normal;text-indent:0;text-align:start;text-decoration:none;text-decoration-line:none;text-decoration-style:solid;text-decoration-color:#000000;letter-spacing:normal;word-spacing:normal;text-transform:none;writing-mode:lr-tb;direction:ltr;text-orientation:mixed;dominant-baseline:auto;baseline-shift:baseline;text-anchor:start;white-space:normal;shape-padding:0;shape-margin:0;inline-size:0;clip-rule:nonzero;display:inline;overflow:visible;visibility:visible;isolation:auto;mix-blend-mode:normal;color-interpolation:sRGB;color-interpolation-filters:linearRGB;solid-color:#000000;solid-opacity:1;vector-effect:none;fill:url(#radialGradient1436);fill-opacity:1;fill-rule:nonzero;stroke:none;stroke-width:0.999999px;stroke-linecap:butt;stroke-linejoin:miter;stroke-miterlimit:4;stroke-dasharray:none;stroke-dashoffset:0;stroke-opacity:1;color-rendering:auto;image-rendering:auto;shape-rendering:auto;text-rendering:auto;enable-background:accumulate;stop-color:#000000;stop-opacity:1"
         d="m 113.42773,122.51758 c -5.66305,1.65336 -9.57578,6.81955 -9.63281,12.71875 2.2e-4,0.0618 8.8e-4,0.12371 0.002,0.18555 l 0.94335,-0.31446 3.66211,-0.125 2.14649,-3.47265 2.20898,-3.72461 -1.13672,-1.95899 1.57813,-2.39844 z m 13.65235,3.8457 -0.0527,1.16797 -5.55664,2.52539 0.94727,7.95508 -1.89453,7.76562 -3.42969,-1.02734 -5.54102,2.41211 c 0.28284,0.12977 0.57013,0.24963 0.86133,0.35937 -0.0242,0.0242 -0.0503,0.0418 -0.0742,0.0664 1.54287,0.59788 3.18323,0.9045 4.83789,0.9043 7.33242,6.2e-4 13.30038,-5.89854 13.38477,-13.23047 3e-5,-0.0163 3e-5,-0.0325 0,-0.0488 -0.0383,-3.27671 -1.27743,-6.4255 -3.48242,-8.84961 z"
         id="path1382" />
    </g>
    <circle
       style="opacity:1;fill:url(#radialGradient1497);fill-opacity:1;stroke:none;stroke-width:2.00502;stroke-opacity:1"
       id="path1479"
       cx="14.03165"
       cy="69.409897"
       r="2.8889294" />
    <path
       id="path1499-0"
       style="opacity:1;fill:url(#radialGradient1531);fill-opacity:1;stroke:none;stroke-width:0.94185;stroke-miterlimit:4;stroke-dasharray:none;stroke-opacity:1"
       d="m 14.128585,66.109648 a 2.862956,2.4293891 0 0 0 -2.433575,1.149823 4.0028367,3.3966462 0 0 0 2.460081,0.717257 4.0028367,3.3966462 0 0 0 2.424056,-0.693771 2.862956,2.4293891 0 0 0 -2.450562,-1.173309 z" />
    <path
       id="path1499-0-5"
       style="opacity:1;fill:url(#radialGradient1531-3);fill-opacity:1;stroke:none;stroke-width:0.941853;stroke-miterlimit:4;stroke-dasharray:none;stroke-opacity:1"
       d="m 14.07189,72.756169 a 2.862956,2.4293891 0 0 0 2.433575,-1.149823 4.0028367,3.3966462 0 0 0 -2.460081,-0.717257 4.0028367,3.3966462 0 0 0 -2.424056,0.693771 2.862956,2.4293891 0 0 0 2.450562,1.173309 z" />
    <path
       d="m 19.458437,68.659471 -0.940671,-0.314453 c -0.114944,-0.485675 -0.305788,-0.941867 -0.560678,-1.35463 l 0.442447,-0.886884 c -0.303697,-0.400513 -0.66118,-0.757896 -1.061592,-1.061493 l -0.886984,0.442447 c -0.412664,-0.25499 -0.868856,-0.446032 -1.354431,-0.560877 L 14.782075,63.98301 c -0.245427,-0.03356 -0.495835,-0.0514 -0.750525,-0.0514 -0.25469,0 -0.504998,0.01783 -0.750525,0.0514 l -0.314453,0.940571 c -0.485575,0.114845 -0.941767,0.305887 -1.354531,0.560877 l -0.886884,-0.442447 c -0.400512,0.303597 -0.7578956,0.66098 -1.0613923,1.061493 l 0.4424463,0.886884 c -0.2549894,0.412763 -0.4460321,0.868955 -0.5607772,1.35463 l -0.940671,0.314453 c -0.033565,0.245328 -0.051396,0.495835 -0.051396,0.750425 0,0.254591 0.017731,0.505098 0.051396,0.750426 l 0.940671,0.314453 c 0.1148449,0.485675 0.3057878,0.941866 0.5606772,1.35463 l -0.4422466,0.886884 c 0.3034968,0.400513 0.6608796,0.757896 1.0613926,1.061493 l 0.886884,-0.442447 c 0.412764,0.254989 0.868955,0.446032 1.35453,0.560877 l 0.314454,0.940472 c 0.245427,0.03366 0.495834,0.0515 0.750524,0.0515 0.254691,0 0.504999,-0.01783 0.750526,-0.0515 l 0.314453,-0.940472 c 0.485575,-0.114845 0.941766,-0.305888 1.35443,-0.560777 l 0.886984,0.442347 c 0.400413,-0.303597 0.757896,-0.66098 1.061393,-1.061493 l -0.442247,-0.886884 c 0.25489,-0.412764 0.445733,-0.868955 0.560677,-1.35463 l 0.940671,-0.314453 c 0.03357,-0.245328 0.0514,-0.495835 0.0514,-0.750426 0,-0.25459 -0.01783,-0.505097 -0.0515,-0.750425 z m -5.426887,4.494583 c -2.067803,0 -3.744158,-1.676255 -3.744158,-3.744158 0,-2.067902 1.676355,-3.744157 3.744158,-3.744157 2.067803,0 3.744157,1.676255 3.744157,3.744157 0,2.067903 -1.676354,3.744158 -3.744157,3.744158 z"
       id="path29-14"
       style="fill:url(#linearGradient1646);fill-opacity:1;stroke-width:0.0996051"
       inkscape:export-xdpi="96"
       inkscape:export-ydpi="96" />
  </g>
</svg>
